HIERARCHY
ROOT hips
{
  OFFSET 0 10.6860622 2.3727825e-15
  CHANNELS 6 Xposition Yposition Zposition Yrotation Xrotation Zrotation
  JOINT leftUpperLeg
  {
    OFFSET 0.6642549969 -0.9402397400000004 0
    CHANNELS 3 Yrotation Xrotation Zrotation
    JOINT leftLowerLeg
    {
      OFFSET 0 -3.997221335632195 0
      CHANNELS 3 Yrotation Xrotation Zrotation
      JOINT leftFoot
      {
        OFFSET -0.13777839790000004 -4.6145792000000005 -0.22186036399999998
        CHANNELS 3 Yrotation Xrotation Zrotation
        JOINT leftToes
        {
          OFFSET -0.03777410834999995 -0.9130806927000008 0.85230013
          CHANNELS 3 Yrotation Xrotation Zrotation
          End Site
          {
            OFFSET -0.03777410834999995 -0.9130806927000008 0.85230013
          }
        }
      }
    }
  }
  JOINT rightUpperLeg
  {
    OFFSET -0.6642778626 -0.9402397400000004 0
    CHANNELS 3 Yrotation Xrotation Zrotation
    JOINT rightLowerLeg
    {
      OFFSET 0 -3.997221452859387 0
      CHANNELS 3 Yrotation Xrotation Zrotation
      JOINT rightFoot
      {
        OFFSET 0.1377926176 -4.6145792000000005 -0.22185782299999995
        CHANNELS 3 Yrotation Xrotation Zrotation
        JOINT rightToes
        {
          OFFSET 0.037780746850000047 -0.9130806927000008 0.85230167
          CHANNELS 3 Yrotation Xrotation Zrotation
          End Site
          {
            OFFSET 0.037780746850000047 -0.9130806927000008 0.85230167
          }
        }
      }
    }
  }
  JOINT spine
  {
    OFFSET 0 0.13988381660000015 0
    CHANNELS 3 Yrotation Xrotation Zrotation
    JOINT chest
    {
      OFFSET 0 0.6191039003973773 0
      CHANNELS 3 Yrotation Xrotation Zrotation
      JOINT upperChest
      {
        OFFSET 0 0.9855186130586943 0
        CHANNELS 3 Yrotation Xrotation Zrotation
        JOINT leftShoulder
        {
          OFFSET 0.1807663869 1.5087829790000005 0
          CHANNELS 3 Yrotation Xrotation Zrotation
          JOINT leftUpperArm
          {
            OFFSET 0.5985063006419806 0 0
            CHANNELS 3 Yrotation Xrotation Zrotation
            JOINT leftLowerArm
            {
              OFFSET 2.2993332369501065 0 0
              CHANNELS 3 Yrotation Xrotation Zrotation
              JOINT leftHand
              {
                OFFSET 2.395047042602395 0 0
                CHANNELS 3 Yrotation Xrotation Zrotation
                JOINT leftIndexProximal
                {
                  OFFSET 0.5766295810000004 0.04556643899499946 0.17265095988184
                  CHANNELS 3 Yrotation Xrotation Zrotation
                  JOINT leftIndexIntermediate
                  {
                    OFFSET 0.2957229000000008 -0.019352197700001517 -0.007932640616999987
                    CHANNELS 3 Yrotation Xrotation Zrotation
                    JOINT leftIndexDistal
                    {
                      OFFSET 0.19008243099999922 -0.012484908149998475 -0.002786250786000012
                      CHANNELS 3 Yrotation Xrotation Zrotation
                      End Site
                      {
                        OFFSET 0.19008243099999922 -0.012484908149998475 -0.002786250786000012
                      }
                    }
                  }
                }
                JOINT leftMiddleProximal
                {
                  OFFSET 0.5834975091000001 0.0524350405149987 0.02204081888183999
                  CHANNELS 3 Yrotation Xrotation Zrotation
                  JOINT leftMiddleIntermediate
                  {
                    OFFSET 0.33880573540000003 -0.019871473270000717 -0.00000971183179999946
                    CHANNELS 3 Yrotation Xrotation Zrotation
                    JOINT leftMiddleDistal
                    {
                      OFFSET 0.20676022730000088 -0.012221336379999448 0.0001471936708000235
                      CHANNELS 3 Yrotation Xrotation Zrotation
                      End Site
                      {
                        OFFSET 0.20676022730000088 -0.012221336379999448 0.0001471936708000235
                      }
                    }
                  }
                }
                JOINT leftLittleProximal
                {
                  OFFSET 0.5344154683999995 -0.012880921405001189 -0.24414037221816004
                  CHANNELS 3 Yrotation Xrotation Zrotation
                  JOINT leftLittleIntermediate
                  {
                    OFFSET 0.21758961730000093 -0.011650919939999227 0.011893592810000034
                    CHANNELS 3 Yrotation Xrotation Zrotation
                    JOINT leftLittleDistal
                    {
                      OFFSET 0.1475273964999999 -0.008152365682999818 0.006001092492999946
                      CHANNELS 3 Yrotation Xrotation Zrotation
                      End Site
                      {
                        OFFSET 0.1475273964999999 -0.008152365682999818 0.006001092492999946
                      }
                    }
                  }
                }
                JOINT leftRingProximal
                {
                  OFFSET 0.5799399463000003 0.026911854694997794 -0.12150566991816003
                  CHANNELS 3 Yrotation Xrotation Zrotation
                  JOINT leftRingIntermediate
                  {
                    OFFSET 0.26167887460000006 -0.013480186499999602 0.010996293000000053
                    CHANNELS 3 Yrotation Xrotation Zrotation
                    JOINT leftRingDistal
                    {
                      OFFSET 0.17667108799999987 -0.008990287899999228 0.0055541023999999065
                      CHANNELS 3 Yrotation Xrotation Zrotation
                      End Site
                      {
                        OFFSET 0.17667108799999987 -0.008990287899999228 0.0055541023999999065
                      }
                    }
                  }
                }
                JOINT leftThumbProximal
                {
                  OFFSET 0.11018806699999972 -0.09448718900500053 0.17047963138184
                  CHANNELS 3 Yrotation Xrotation Zrotation
                  JOINT leftThumbIntermediate
                  {
                    OFFSET 0.31062601459999983 -0.08126270900000132 0.15443142000000007
                    CHANNELS 3 Yrotation Xrotation Zrotation
                    JOINT leftThumbDistal
                    {
                      OFFSET 0.21627175790000086 -0.08833193599999878 0.018771167799999988
                      CHANNELS 3 Yrotation Xrotation Zrotation
                      End Site
                      {
                        OFFSET 0.21627175790000086 -0.08833193599999878 0.018771167799999988
                      }
                    }
                  }
                }
              }
            }
          }
        }
        JOINT neck
        {
          OFFSET 0 1.5463305265074576 0
          CHANNELS 3 Yrotation Xrotation Zrotation
          JOINT head
          {
            OFFSET 0 0.8456443600000344 0
            CHANNELS 3 Yrotation Xrotation Zrotation
            JOINT leftEye
            {
              OFFSET 0.30408573140000006 0.5104519199999995 0.1276382305
              CHANNELS 3 Yrotation Xrotation Zrotation
              End Site
              {
                OFFSET 0.30408573140000006 0.5104519199999995 0.1276382305
              }
            }
            JOINT rightEye
            {
              OFFSET -0.30409491089999996 0.5104519199999995 0.1276379445
              CHANNELS 3 Yrotation Xrotation Zrotation
              End Site
              {
                OFFSET -0.30409491089999996 0.5104519199999995 0.1276379445
              }
            }
            JOINT jaw
            {
              OFFSET -3.155239131000001e-7 -0.11984121820000082 0.60178107
              CHANNELS 3 Yrotation Xrotation Zrotation
              End Site
              {
                OFFSET -3.155239131000001e-7 -0.11984121820000082 0.60178107
              }
            }
          }
        }
        JOINT rightShoulder
        {
          OFFSET -0.1807303465 1.5087829790000005 0
          CHANNELS 3 Yrotation Xrotation Zrotation
          JOINT rightUpperArm
          {
            OFFSET -0.5985063796536958 0 0
            CHANNELS 3 Yrotation Xrotation Zrotation
            JOINT rightLowerArm
            {
              OFFSET -2.2993322059002854 0 0
              CHANNELS 3 Yrotation Xrotation Zrotation
              JOINT rightHand
              {
                OFFSET -2.395045314457259 0 0
                CHANNELS 3 Yrotation Xrotation Zrotation
                JOINT rightIndexProximal
                {
                  OFFSET -0.5764487688300002 0.0441371204405987 0.17361932004999997
                  CHANNELS 3 Yrotation Xrotation Zrotation
                  JOINT rightIndexIntermediate
                  {
                    OFFSET -0.29573011380000047 -0.01934826376999843 -0.007698921482999974
                    CHANNELS 3 Yrotation Xrotation Zrotation
                    JOINT rightIndexDistal
                    {
                      OFFSET -0.19008373999999884 -0.012503266380000655 -0.0026365778999999897
                      CHANNELS 3 Yrotation Xrotation Zrotation
                      End Site
                      {
                        OFFSET -0.19008373999999884 -0.012503266380000655 -0.0026365778999999897
                      }
                    }
                  }
                }
                JOINT rightMiddleProximal
                {
                  OFFSET -0.5834852037300005 0.05211639405060153 0.02307162440000001
                  CHANNELS 3 Yrotation Xrotation Zrotation
                  JOINT rightMiddleIntermediate
                  {
                    OFFSET -0.33880114510000003 -0.019952774050000954 0.0002455003561999819
                    CHANNELS 3 Yrotation Xrotation Zrotation
                    JOINT rightMiddleDistal
                    {
                      OFFSET -0.20675694929999955 -0.012273788999999091 0.00030209124000002766
                      CHANNELS 3 Yrotation Xrotation Zrotation
                      End Site
                      {
                        OFFSET -0.20675694929999955 -0.012273788999999091 0.00030209124000002766
                      }
                    }
                  }
                }
                JOINT rightLittleProximal
                {
                  OFFSET -0.5346811737299992 -0.011214256288399227 -0.24363941305000003
                  CHANNELS 3 Yrotation Xrotation Zrotation
                  JOINT rightLittleIntermediate
                  {
                    OFFSET -0.21757715980000092 -0.011771559690000988 0.01201554387
                    CHANNELS 3 Yrotation Xrotation Zrotation
                    JOINT rightLittleDistal
                    {
                      OFFSET -0.1475201849000004 -0.00822055339600003 0.006082065407000015
                      CHANNELS 3 Yrotation Xrotation Zrotation
                      End Site
                      {
                        OFFSET -0.1475201849000004 -0.00822055339600003 0.006082065407000015
                      }
                    }
                  }
                }
                JOINT rightRingProximal
                {
                  OFFSET -0.5800810755299999 0.027657985680600072 -0.12066365025000003
                  CHANNELS 3 Yrotation Xrotation Zrotation
                  JOINT rightRingIntermediate
                  {
                    OFFSET -0.26166445029999974 -0.013623118409999302 0.011164098990000045
                    CHANNELS 3 Yrotation Xrotation Zrotation
                    JOINT rightRingDistal
                    {
                      OFFSET -0.17666387530000027 -0.009072900100000503 0.005668185599999959
                      CHANNELS 3 Yrotation Xrotation Zrotation
                      End Site
                      {
                        OFFSET -0.17666387530000027 -0.009072900100000503 0.005668185599999959
                      }
                    }
                  }
                }
                JOINT rightThumbProximal
                {
                  OFFSET -0.10997596379000074 -0.09577489355940072 0.16989765924999997
                  CHANNELS 3 Yrotation Xrotation Zrotation
                  JOINT rightThumbIntermediate
                  {
                    OFFSET -0.31036620999999986 -0.08229339117999834 0.15440884469999996
                    CHANNELS 3 Yrotation Xrotation Zrotation
                    JOINT rightThumbDistal
                    {
                      OFFSET -0.21631306399999906 -0.08825326400000111 0.018656797720000014
                      CHANNELS 3 Yrotation Xrotation Zrotation
                      End Site
                      {
                        OFFSET -0.21631306399999906 -0.08825326400000111 0.018656797720000014
                      }
                    }
                  }
                }
              }
            }
          }
        }
      }
    }
  }
}
MOTION
Frames: 6
Frame Time: 0.03333333333333333
0 -1.3825986303288362 -1.6417458614575045 -179.87078737014662 9.248265657400113 0.010450470052178492 11.555786687374177 -51.97090625850649 10.073241633175567 10.782971626957032 34.46118576461575 -0.7616936014271509 0.09899233851342684 1.244309187168099 -17.30112674718911 0 0 0 -11.579699791278617 -51.96806811172491 -10.07388138605205 -10.780881189139397 34.47978113987903 0.7610247567279599 -0.1024223498891122 1.22354700067411 17.276308293943075 0 0 0 -0.616436119539919 -20.754383273906264 -2.5054921375719843 -0.15266607839108964 25.4268301327752 -3.183599595465659 0 0 0 -33.375612928071995 14.417129477730569 -26.350606255155867 30.44410911723757 18.500839949913768 -42.370999722292865 -61.04912934858905 -27.699277145773657 3.0395244380483453 -5.019634819873516 -1.3420487002178156 -16.19160858900485 0 0 0 0 0 0 0 0 0 0 0 0 0 0 0 0 0 0 0 0 0 0 0 0 0 0 0 0 0 0 0 0 0 0 0 0 0 0 0 0 0 0 0 0 0 0 -21.86013579491449 0 0 -27.390340801359674 0 0 0 0 0 0 0 0 0 0 33.924008073451844 13.136723131456174 28.750697969756658 -30.337657212168665 18.168342605644757 41.83250418897943 61.08740113573724 -27.850564038277305 -0.7211746959434066 5.016206519031727 -1.3413974125228818 16.188121657506095 0 0 0 0 0 0 0 0 0 0 0 0 0 0 0 0 0 0 0 0 0 0 0 0 0 0 0 0 0 0 0 0 0 0 0 0 0 0 0 0 0 0 0 0 0
0 -1.3825986303288362 -1.6380777442855643 -179.87402100627105 9.497967180320591 0.010465129596074435 11.534387921515247 -52.223178071628915 10.035295898330247 10.782971626957032 34.46118576461575 -0.7616936014271509 0.09899233851342684 1.244309187168099 -17.30112674718911 0 0 0 -11.55845554660811 -52.2207363459179 -10.035798240739668 -10.780881189139397 34.47978113987903 0.7610247567279599 -0.1024223498891122 1.22354700067411 17.276308293943075 0 0 0 -0.6165047516402392 -20.61880183631001 -2.506075080379863 -0.15266607839108964 25.4268301327752 -3.183599595465659 0 0 0 -33.3300914652977 14.430371397129264 -26.624768586641924 30.32939953122236 18.37394066312773 -42.135100531795516 -60.95380886203554 -27.705628083311947 3.155314755198247 -5.019634819873516 -1.3420487002178156 -16.191606948738226 0 0 0 0 0 0 0 0 0 0 0 0 0 0 0 0 0 0 0 0 0 0 0 0 0 0 0 0 0 0 0 0 0 0 0 0 0 0 0 0 0 0 0 0 0 0 -21.52728629806463 0 0 -27.067560206857927 0 0 0 0 0 0 0 0 0 0 33.87791914403701 13.160143987599922 29.046284413710193 -30.211208569780993 18.034003671412798 41.616254225073334 60.946051520028306 -27.85553517759835 -0.8326591052374857 5.016206519031727 -1.3413974125228818 16.188121657506095 0 0 0 0 0 0 0 0 0 0 0 0 0 0 0 0 0 0 0 0 0 0 0 0 0 0 0 0 0 0 0 0 0 0 0 0 0 0 0 0 0 0 0 0 0
0 -1.3825986303288362 -1.6307412415494127 -179.88049433991173 9.997539673848848 0.010452895858630648 11.492035289457341 -52.72793091045904 9.95918724244779 10.782971626957032 34.46118576461575 -0.7616936014271509 0.09899233851342684 1.244309187168099 -17.30112674718911 0 0 0 -11.516439067644834 -52.72630685491419 -9.95940403578243 -10.780881189139397 34.47978113987903 0.7610247567279599 -0.1024223498891122 1.22354700067411 17.276308293943075 0 0 0 -0.6166517269227169 -20.34760814652107 -2.5072342443026865 -0.15266607839108964 25.4268301327752 -3.183599595465659 0 0 0 -33.23920725091808 14.45750035356223 -27.173362622308602 30.09845629467397 18.121351788198012 -41.66275211640668 -60.76316350566435 -27.718842226878706 3.3869206027971193 -5.019634819873516 -1.3420488069688044 -16.19161022927145 0 0 0 0 0 0 0 0 0 0 0 0 0 0 0 0 0 0 0 0 0 0 0 0 0 0 0 0 0 0 0 0 0 0 0 0 0 0 0 0 0 0 0 0 0 0 -20.8604570151317 0 0 -26.420834780956056 0 0 0 0 0 0 0 0 0 0 33.78603367259662 13.207699258219465 29.637788884683065 -29.956860696601048 17.76653057023692 41.18306271500606 60.66329992415198 -27.86621597987023 -1.0556571062367617 5.016206519031727 -1.3413974125228818 16.188121657506095 0 0 0 0 0 0 0 0 0 0 0 0 0 0 0 0 0 0 0 0 0 0 0 0 0 0 0 0 0 0 0 0 0 0 0 0 0 0 0 0 0 0 0 0 0
0 -1.3825986303288362 -1.6270731243774725 -179.88374264811242 10.247400453014793 0.010423892940416866 11.47108700273042 -52.980401582920905 9.92101968161728 10.782971626957032 34.46118576461575 -0.7616936014271509 0.09899233851342684 1.244309187168099 -17.30112674718911 0 0 0 -11.495650719618878 -52.97917643017286 -9.921092461051233 -10.780881189139397 34.47978113987903 0.7610247567279599 -0.1024223498891122 1.22354700067411 17.276308293943075 0 0 0 -0.616730208281646 -20.212001710854153 -2.507809973985102 -0.15266607839108964 25.4268301327752 -3.183599595465659 0 0 0 -33.19384713098338 14.471384825557536 -27.447780197079727 29.982230318262 17.99567358177864 -41.42631027784419 -60.66784731716219 -27.725711282236755 3.5027355312770556 -5.019634819873516 -1.3420488069688044 -16.19161022927145 0 0 0 0 0 0 0 0 0 0 0 0 0 0 0 0 0 0 0 0 0 0 0 0 0 0 0 0 0 0 0 0 0 0 0 0 0 0 0 0 0 0 0 0 0 0 -20.526499939263147 0 0 -26.096914078279873 0 0 0 0 0 0 0 0 0 0 33.74026406212691 13.231837327883415 29.933699575529122 -29.828976546241055 17.63342538550546 40.966147841699545 60.52189618104785 -27.87191992081733 -1.1671686027369368 5.016206519031727 -1.3413974125228818 16.188121657506095 0 0 0 0 0 0 0 0 0 0 0 0 0 0 0 0 0 0 0 0 0 0 0 0 0 0 0 0 0 0 0 0 0 0 0 0 0 0 0 0 0 0 0 0 0
0 -1.3825986303288362 -1.6234050072055324 -179.88699367940856 10.497260399058947 0.010380460170784794 11.450295945180564 -53.2328842098384 9.882781553433778 10.782971626957032 34.46118576461575 -0.7616936014271509 0.09899233851342684 1.244309187168099 -17.30112674718911 0 0 0 -11.475023159705845 -53.2320569232185 -9.882708212495766 -10.780881189139397 34.47978113987903 0.7610247567279599 -0.1024223498891122 1.22354700067411 17.276308293943075 0 0 0 -0.6168049526689264 -20.076393346519307 -2.508392117693464 -0.15266607839108964 25.4268301327752 -3.183599595465659 0 0 0 -33.14855092311382 14.485480035527093 -27.72220617634267 29.86554364553797 17.870450858664796 -41.189769196176826 -60.57253967622428 -27.73275053581904 3.6185450890956923 -5.019634819873516 -1.3420488069688044 -16.19161022927145 0 0 0 0 0 0 0 0 0 0 0 0 0 0 0 0 0 0 0 0 0 0 0 0 0 0 0 0 0 0 0 0 0 0 0 0 0 0 0 0 0 0 0 0 0 0 -20.19254233885964 0 0 -25.772992930096393 0 0 0 0 0 0 0 0 0 0 33.69461971489793 13.256204969515348 30.229621556257964 -29.700660511350865 17.500785453275714 40.749079405536 60.38049622438356 -27.87786756002564 -1.2786698886156809 5.016206519031727 -1.3413974125228818 16.188121657506095 0 0 0 0 0 0 0 0 0 0 0 0 0 0 0 0 0 0 0 0 0 0 0 0 0 0 0 0 0 0 0 0 0 0 0 0 0 0 0 0 0 0 0 0 0
0 -1.3825986303288362 -1.6160685044693808 -179.89347587317783 10.997122938540887 0.010255516280915315 11.409180239828324 -53.7380157612731 9.806061327319842 10.782971626957032 34.46118576461575 -0.7616936014271509 0.09899233851342684 1.244309187168099 -17.30112674718911 0 0 0 -11.43425722877344 -53.7380099874446 -9.805686823127584 -10.780881189139397 34.47978113987903 0.7610247567279599 -0.1024223498891122 1.22354700067411 17.276308293943075 0 0 0 -0.6169633680286064 -19.80515692971307 -2.509548036723836 -0.15266607839108964 25.4268301327752 -3.183599595465659 0 0 0 -33.058123161927924 14.514311653348667 -28.27126983414935 29.63068588636259 17.621281424907007 -40.7161765907737 -60.38189087934028 -27.74732433552452 3.850173552701102 -5.019634819873516 -1.3420487002178156 -16.191606948738226 0 0 0 0 0 0 0 0 0 0 0 0 0 0 0 0 0 0 0 0 0 0 0 0 0 0 0 0 0 0 0 0 0 0 0 0 0 0 0 0 0 0 0 0 0 0 -19.523589400251545 0 0 -25.124070857054843 0 0 0 0 0 0 0 0 0 0 33.603657565521786 13.305643300234209 30.821730074099246 -29.442621344045772 17.23678717096551 40.314294898133994 60.09766016261611 -27.890497959642534 -1.5016818147517703 5.016206519031727 -1.3413974125228818 16.188121657506095 0 0 0 0 0 0 0 0 0 0 0 0 0 0 0 0 0 0 0 0 0 0 0 0 0 0 0 0 0 0 0 0 0 0 0 0 0 0 0 0 0 0 0 0 0
